<svg id="Camada_1" data-name="Camada 1" xmlns="http://www.w3.org/2000/svg" viewBox="0 0 242.39 24"><defs><style>.cls-1{fill:#8234e9;}</style></defs><title>rocketseat</title><path class="cls-1" d="M59,13.63a5.6,5.6,0,0,0,1.78-4.52c0-3.68-2.11-5.79-5.79-5.79h-12V20.67h2.89V6.21h9.11c2.09,0,2.9.81,2.9,2.9S57,12,54.94,12H49l8.24,8.67H61l-5.43-5.79A5.71,5.71,0,0,0,59,13.63Z" transform="translate(0 0)"/><path class="cls-1" d="M72.43,3.12h0c-3.76,0-6.44,1.14-8,3.39A9.65,9.65,0,0,0,63.06,12a9.65,9.65,0,0,0,1.4,5.49c1.53,2.25,4.21,3.39,8,3.39h0c3.76,0,6.45-1.14,8-3.39A9.57,9.57,0,0,0,81.82,12a9.57,9.57,0,0,0-1.41-5.49c-1.53-2.25-4.22-3.39-8-3.39ZM78,15.86c-1,1.41-2.84,2.12-5.59,2.12h0c-2.74,0-4.62-.71-5.58-2.12A6.86,6.86,0,0,1,66,12a6.86,6.86,0,0,1,.9-3.86C67.81,6.73,69.69,6,72.43,6h0c2.75,0,4.63.72,5.59,2.13A6.87,6.87,0,0,1,78.93,12,6.87,6.87,0,0,1,78,15.86Z" transform="translate(0 0)"/><path class="cls-1" d="M179.8,11.6a6.93,6.93,0,0,0-4-1h-5.57c-2.8,0-3-1.13-3-2.2s.23-2.2,3-2.2h10.62V3.35H170.27a6.92,6.92,0,0,0-4,1,4.61,4.61,0,0,0-1.92,4,4.59,4.59,0,0,0,1.92,4,6.84,6.84,0,0,0,4,1h5.57a4.29,4.29,0,0,1,2.34.51,1.82,1.82,0,0,1,.7,1.69c0,1.08-.24,2.2-3,2.2H165.12v2.83h10.72a6.93,6.93,0,0,0,4-1,4.6,4.6,0,0,0,1.91-4A4.59,4.59,0,0,0,179.8,11.6Z" transform="translate(0 0)"/><path class="cls-1" d="M128.67,13.44h10.52v-2.9H128.67V6.2h13V3.31H125.78V20.67h15.94V17.78H128.67Z" transform="translate(0 0)"/><path class="cls-1" d="M188.26,13.44h10.52v-2.9H188.26V6.2h13V3.31H185.36V20.67h15.95V17.78H188.26Z" transform="translate(0 0)"/><path class="cls-1" d="M144.3,6.17h7.24V20.68h2.9V6.17h7.23V3.33H144.3Z" transform="translate(0 0)"/><path class="cls-1" d="M242.39,3.33H225V6.17h7.24V20.68h2.89V6.17h7.24Z" transform="translate(0 0)"/><path class="cls-1" d="M122.76,3.34h-3.65L111.78,12l7.34,8.67h3.67L115.56,12Z" transform="translate(0 0)"/><path class="cls-1" d="M108.52,3.31h-3V20.67h3Z" transform="translate(0 0)"/><path class="cls-1" d="M217,3.32H210a5.2,5.2,0,0,0-5.2,5.2V20.68h2.87v-6h11.62v6h2.83V13.49a1.49,1.49,0,0,0,0-.21V8.52A5.2,5.2,0,0,0,217,3.32Zm2.33,8.52h-11.6V8.52A2.33,2.33,0,0,1,210,6.19H217a2.33,2.33,0,0,1,2.33,2.33Z" transform="translate(0 0)"/><path class="cls-1" d="M84.74,8.53v6.94a5.2,5.2,0,0,0,5.2,5.2H102.1V17.8H89.94a2.33,2.33,0,0,1-2.33-2.33V8.53A2.33,2.33,0,0,1,89.94,6.2H102.1V3.33H89.94A5.2,5.2,0,0,0,84.74,8.53Z" transform="translate(0 0)"/><path class="cls-1" d="M18.46,18.87c-6.74,5.75-11.52,6.16-14,3.71-2.26-2.26-.38-7.92,4.18-13.51L0,.4H5.54L14.15,9c-5.43,5.47-8.6,11.29-7,12.93,1.35,1.36,5.53-.53,10-4.31Z" transform="translate(0 0)"/><path class="cls-1" d="M34.26,23.6H28.72L20.11,15c5.44-5.47,8.6-11.29,7-12.93C25.72.7,21.54,2.59,17,6.37L15.8,5.13C22.54-.62,27.32-1,29.77,1.42c2.26,2.26.39,7.92-4.18,13.51l8.67,8.67Z" transform="translate(0 0)"/></svg>